<svg xmlns="http://www.w3.org/2000/svg" xmlns:xlink="http://www.w3.org/1999/xlink" width="1080" zoomAndPan="magnify" viewBox="0 0 810 809.999993" height="1080" preserveAspectRatio="xMidYMid meet" version="1.0"><defs><g/><clipPath id="56439b220a"><rect x="0" width="331" y="0" height="617"/></clipPath><clipPath id="13922bbe2d"><rect x="0" width="334" y="0" height="617"/></clipPath></defs><g transform="matrix(1, 0, 0, 1, 351, 166)"><g clip-path="url(#56439b220a)"><g fill="#2563eb" fill-opacity="1"><g transform="translate(0.407857, 518.986782)"><g><path d="M 301.875 -313.03125 L 301.875 -154.5625 L 164.609375 -75.328125 L 95.96875 -117.734375 L 95.96875 3.90625 L 27.34375 -38.5 L 27.34375 -313.03125 L 164.609375 -392.28125 Z M 95.96875 -196.96875 L 164.609375 -154.5625 L 232.6875 -196.96875 L 232.6875 -276.203125 L 164.609375 -313.03125 L 95.96875 -276.203125 Z M 95.96875 -196.96875 "/></g></g></g></g></g><g transform="matrix(1, 0, 0, 1, 146, 25)"><g clip-path="url(#13922bbe2d)"><g fill="#2563eb" fill-opacity="1"><g transform="translate(1.658746, 519.29199)"><g><path d="M 96.53125 6.703125 L 27.90625 -30.125 L 27.90625 -347.078125 L 96.53125 -388.921875 L 96.53125 -167.953125 C 120.34375 -183.578125 143.222656 -197.34375 165.171875 -209.25 C 187.117188 -221.15625 209.992188 -233.617188 233.796875 -246.640625 L 233.796875 -388.921875 L 302.4375 -347.078125 L 302.4375 -30.125 L 233.796875 6.703125 L 233.796875 -167.953125 L 96.53125 -88.15625 Z M 96.53125 6.703125 "/></g></g></g></g></g></svg>